<svg xmlns="http://www.w3.org/2000/svg" viewBox="0 0 200 50" width="200" height="50">
  <defs>
    <linearGradient id="logoGrad" x1="0%" y1="0%" x2="100%" y2="100%">
      <stop offset="0%" style="stop-color:#00D4FF;stop-opacity:1" />
      <stop offset="100%" style="stop-color:#0099CC;stop-opacity:1" />
    </linearGradient>
  </defs>
  <!-- Shield Icon -->
  <g transform="translate(5, 5)">
    <path d="M20 2L4 9v9c0 8.4 6.8 16.3 16 18 9.2-1.7 16-9.6 16-18V9L20 2z" fill="url(#logoGrad)" opacity="0.9"/>
    <path d="M20 6L8 11.5v7c0 6.5 5.1 12.6 12 14 6.9-1.4 12-7.5 12-14v-7L20 6z" fill="none" stroke="white" stroke-width="1" opacity="0.3"/>
    <path d="M18 21l-4-4 1.5-1.5L18 18l6.5-6.5L26 13l-8 8z" fill="white" opacity="0.9"/>
  </g>
  <!-- Text -->
  <text x="52" y="33" font-family="'Inter', 'Segoe UI', Arial, sans-serif" font-size="24" font-weight="700" fill="white" letter-spacing="-0.5">OmniPriv</text>
</svg>
