<svg xmlns="http://www.w3.org/2000/svg" xmlns:xlink="http://www.w3.org/1999/xlink" width="500" zoomAndPan="magnify" viewBox="0 0 375 374.999991" height="500" preserveAspectRatio="xMidYMid meet" version="1.0"><defs><g/><clipPath id="dfbbf70cbc"><path d="M 37.5 165.203125 L 48.59375 165.203125 L 48.59375 176.296875 L 37.5 176.296875 Z M 37.5 165.203125 " clip-rule="nonzero"/></clipPath><clipPath id="e012cebbf7"><path d="M 43.046875 165.203125 C 39.984375 165.203125 37.5 167.6875 37.5 170.75 C 37.5 173.8125 39.984375 176.296875 43.046875 176.296875 C 46.109375 176.296875 48.59375 173.8125 48.59375 170.75 C 48.59375 167.6875 46.109375 165.203125 43.046875 165.203125 Z M 43.046875 165.203125 " clip-rule="nonzero"/></clipPath><clipPath id="f1a49b2e1f"><path d="M 0.5 0.203125 L 11.59375 0.203125 L 11.59375 11.296875 L 0.5 11.296875 Z M 0.5 0.203125 " clip-rule="nonzero"/></clipPath><clipPath id="bd6365ded2"><path d="M 6.046875 0.203125 C 2.984375 0.203125 0.5 2.6875 0.5 5.75 C 0.5 8.8125 2.984375 11.296875 6.046875 11.296875 C 9.109375 11.296875 11.59375 8.8125 11.59375 5.75 C 11.59375 2.6875 9.109375 0.203125 6.046875 0.203125 Z M 6.046875 0.203125 " clip-rule="nonzero"/></clipPath><clipPath id="1c33230bf8"><rect x="0" width="12" y="0" height="12"/></clipPath><clipPath id="2c7810b90f"><path d="M 52.390625 180.476562 L 67.957031 180.476562 L 67.957031 196.039062 L 52.390625 196.039062 Z M 52.390625 180.476562 " clip-rule="nonzero"/></clipPath><clipPath id="a1301d2095"><path d="M 60.171875 180.476562 C 55.875 180.476562 52.390625 183.960938 52.390625 188.257812 C 52.390625 192.554688 55.875 196.039062 60.171875 196.039062 C 64.472656 196.039062 67.957031 192.554688 67.957031 188.257812 C 67.957031 183.960938 64.472656 180.476562 60.171875 180.476562 Z M 60.171875 180.476562 " clip-rule="nonzero"/></clipPath><clipPath id="20d14dcda4"><path d="M 0.390625 0.476562 L 15.957031 0.476562 L 15.957031 16.039062 L 0.390625 16.039062 Z M 0.390625 0.476562 " clip-rule="nonzero"/></clipPath><clipPath id="101cf8c82f"><path d="M 8.171875 0.476562 C 3.875 0.476562 0.390625 3.960938 0.390625 8.257812 C 0.390625 12.554688 3.875 16.039062 8.171875 16.039062 C 12.472656 16.039062 15.957031 12.554688 15.957031 8.257812 C 15.957031 3.960938 12.472656 0.476562 8.171875 0.476562 Z M 8.171875 0.476562 " clip-rule="nonzero"/></clipPath><clipPath id="fd3c971676"><rect x="0" width="16" y="0" height="17"/></clipPath><clipPath id="a3e1fb3da7"><path d="M 296.128906 164.65625 L 306.128906 164.65625 L 306.128906 174.65625 L 296.128906 174.65625 Z M 296.128906 164.65625 " clip-rule="nonzero"/></clipPath><clipPath id="7818481a4e"><path d="M 301.128906 164.65625 C 298.367188 164.65625 296.128906 166.894531 296.128906 169.65625 C 296.128906 172.417969 298.367188 174.65625 301.128906 174.65625 C 303.890625 174.65625 306.128906 172.417969 306.128906 169.65625 C 306.128906 166.894531 303.890625 164.65625 301.128906 164.65625 Z M 301.128906 164.65625 " clip-rule="nonzero"/></clipPath><clipPath id="d326b08b59"><path d="M 0.128906 0.65625 L 10.128906 0.65625 L 10.128906 10.65625 L 0.128906 10.65625 Z M 0.128906 0.65625 " clip-rule="nonzero"/></clipPath><clipPath id="c46a6451ee"><path d="M 5.128906 0.65625 C 2.367188 0.65625 0.128906 2.894531 0.128906 5.65625 C 0.128906 8.417969 2.367188 10.65625 5.128906 10.65625 C 7.890625 10.65625 10.128906 8.417969 10.128906 5.65625 C 10.128906 2.894531 7.890625 0.65625 5.128906 0.65625 Z M 5.128906 0.65625 " clip-rule="nonzero"/></clipPath><clipPath id="816e3cd69c"><rect x="0" width="11" y="0" height="11"/></clipPath><clipPath id="0557859550"><path d="M 71.476562 165.203125 L 82.570312 165.203125 L 82.570312 176.296875 L 71.476562 176.296875 Z M 71.476562 165.203125 " clip-rule="nonzero"/></clipPath><clipPath id="3186ee33cd"><path d="M 77.023438 165.203125 C 73.960938 165.203125 71.476562 167.6875 71.476562 170.75 C 71.476562 173.8125 73.960938 176.296875 77.023438 176.296875 C 80.085938 176.296875 82.570312 173.8125 82.570312 170.75 C 82.570312 167.6875 80.085938 165.203125 77.023438 165.203125 Z M 77.023438 165.203125 " clip-rule="nonzero"/></clipPath><clipPath id="26ac9c2d0f"><path d="M 0.476562 0.203125 L 11.570312 0.203125 L 11.570312 11.296875 L 0.476562 11.296875 Z M 0.476562 0.203125 " clip-rule="nonzero"/></clipPath><clipPath id="8bb580eec1"><path d="M 6.023438 0.203125 C 2.960938 0.203125 0.476562 2.6875 0.476562 5.75 C 0.476562 8.8125 2.960938 11.296875 6.023438 11.296875 C 9.085938 11.296875 11.570312 8.8125 11.570312 5.75 C 11.570312 2.6875 9.085938 0.203125 6.023438 0.203125 Z M 6.023438 0.203125 " clip-rule="nonzero"/></clipPath><clipPath id="247d90638c"><rect x="0" width="12" y="0" height="12"/></clipPath><clipPath id="1aef327221"><path d="M 71.476562 198.929688 L 82.570312 198.929688 L 82.570312 210.023438 L 71.476562 210.023438 Z M 71.476562 198.929688 " clip-rule="nonzero"/></clipPath><clipPath id="632f7d8468"><path d="M 77.023438 198.929688 C 73.960938 198.929688 71.476562 201.414062 71.476562 204.476562 C 71.476562 207.539062 73.960938 210.023438 77.023438 210.023438 C 80.085938 210.023438 82.570312 207.539062 82.570312 204.476562 C 82.570312 201.414062 80.085938 198.929688 77.023438 198.929688 Z M 77.023438 198.929688 " clip-rule="nonzero"/></clipPath><clipPath id="869cfc5797"><path d="M 0.476562 0.929688 L 11.570312 0.929688 L 11.570312 12.023438 L 0.476562 12.023438 Z M 0.476562 0.929688 " clip-rule="nonzero"/></clipPath><clipPath id="57dc22828f"><path d="M 6.023438 0.929688 C 2.960938 0.929688 0.476562 3.414062 0.476562 6.476562 C 0.476562 9.539062 2.960938 12.023438 6.023438 12.023438 C 9.085938 12.023438 11.570312 9.539062 11.570312 6.476562 C 11.570312 3.414062 9.085938 0.929688 6.023438 0.929688 Z M 6.023438 0.929688 " clip-rule="nonzero"/></clipPath><clipPath id="36410ba72c"><rect x="0" width="12" y="0" height="13"/></clipPath><clipPath id="fdbae9053b"><path d="M 37.5 198.929688 L 48.59375 198.929688 L 48.59375 210.023438 L 37.5 210.023438 Z M 37.5 198.929688 " clip-rule="nonzero"/></clipPath><clipPath id="735636f0f6"><path d="M 43.046875 198.929688 C 39.984375 198.929688 37.5 201.414062 37.5 204.476562 C 37.5 207.539062 39.984375 210.023438 43.046875 210.023438 C 46.109375 210.023438 48.59375 207.539062 48.59375 204.476562 C 48.59375 201.414062 46.109375 198.929688 43.046875 198.929688 Z M 43.046875 198.929688 " clip-rule="nonzero"/></clipPath><clipPath id="9e5409ff6e"><path d="M 0.5 0.929688 L 11.59375 0.929688 L 11.59375 12.023438 L 0.5 12.023438 Z M 0.5 0.929688 " clip-rule="nonzero"/></clipPath><clipPath id="9788180360"><path d="M 6.046875 0.929688 C 2.984375 0.929688 0.5 3.414062 0.5 6.476562 C 0.5 9.539062 2.984375 12.023438 6.046875 12.023438 C 9.109375 12.023438 11.59375 9.539062 11.59375 6.476562 C 11.59375 3.414062 9.109375 0.929688 6.046875 0.929688 Z M 6.046875 0.929688 " clip-rule="nonzero"/></clipPath><clipPath id="ba843688e2"><rect x="0" width="12" y="0" height="13"/></clipPath></defs><g fill="#3c3744" fill-opacity="1"><g transform="translate(89.257873, 205.293267)"><g><path d="M 21.90625 0.515625 C 18.195312 0.515625 14.847656 -0.285156 11.859375 -1.890625 C 8.878906 -3.503906 6.539062 -5.742188 4.84375 -8.609375 C 3.144531 -11.472656 2.296875 -14.675781 2.296875 -18.21875 C 2.296875 -21.757812 3.144531 -24.957031 4.84375 -27.8125 C 6.539062 -30.675781 8.878906 -32.914062 11.859375 -34.53125 C 14.847656 -36.144531 18.195312 -36.953125 21.90625 -36.953125 C 25.625 -36.953125 28.972656 -36.144531 31.953125 -34.53125 C 34.941406 -32.914062 37.285156 -30.6875 38.984375 -27.84375 C 40.679688 -25 41.53125 -21.789062 41.53125 -18.21875 C 41.53125 -14.644531 40.679688 -11.429688 38.984375 -8.578125 C 37.285156 -5.734375 34.941406 -3.503906 31.953125 -1.890625 C 28.972656 -0.285156 25.625 0.515625 21.90625 0.515625 Z M 21.90625 -5.40625 C 24.34375 -5.40625 26.53125 -5.953125 28.46875 -7.046875 C 30.414062 -8.140625 31.941406 -9.664062 33.046875 -11.625 C 34.160156 -13.59375 34.71875 -15.789062 34.71875 -18.21875 C 34.71875 -20.644531 34.160156 -22.835938 33.046875 -24.796875 C 31.941406 -26.753906 30.414062 -28.28125 28.46875 -29.375 C 26.53125 -30.46875 24.34375 -31.015625 21.90625 -31.015625 C 19.476562 -31.015625 17.289062 -30.46875 15.34375 -29.375 C 13.40625 -28.28125 11.878906 -26.753906 10.765625 -24.796875 C 9.660156 -22.835938 9.109375 -20.644531 9.109375 -18.21875 C 9.109375 -15.789062 9.660156 -13.59375 10.765625 -11.625 C 11.878906 -9.664062 13.40625 -8.140625 15.34375 -7.046875 C 17.289062 -5.953125 19.476562 -5.40625 21.90625 -5.40625 Z M 21.90625 -5.40625 "/></g></g></g><g fill="#3c3744" fill-opacity="1"><g transform="translate(132.297188, 205.293267)"><g><path d="M 39.34375 -28.109375 C 42.851562 -28.109375 45.628906 -27.09375 47.671875 -25.0625 C 49.722656 -23.03125 50.75 -19.984375 50.75 -15.921875 L 50.75 0 L 44.234375 0 L 44.234375 -15.09375 C 44.234375 -17.519531 43.695312 -19.347656 42.625 -20.578125 C 41.550781 -21.816406 40.007812 -22.4375 38 -22.4375 C 35.8125 -22.4375 34.054688 -21.710938 32.734375 -20.265625 C 31.421875 -18.828125 30.765625 -16.773438 30.765625 -14.109375 L 30.765625 0 L 24.25 0 L 24.25 -15.09375 C 24.25 -17.519531 23.710938 -19.347656 22.640625 -20.578125 C 21.566406 -21.816406 20.023438 -22.4375 18.015625 -22.4375 C 15.785156 -22.4375 14.019531 -21.722656 12.71875 -20.296875 C 11.425781 -18.878906 10.78125 -16.816406 10.78125 -14.109375 L 10.78125 0 L 4.265625 0 L 4.265625 -27.796875 L 10.46875 -27.796875 L 10.46875 -24.25 C 11.5 -25.5 12.796875 -26.453125 14.359375 -27.109375 C 15.921875 -27.773438 17.65625 -28.109375 19.5625 -28.109375 C 21.644531 -28.109375 23.492188 -27.71875 25.109375 -26.9375 C 26.722656 -26.15625 28 -25 28.9375 -23.46875 C 30.082031 -24.925781 31.554688 -26.0625 33.359375 -26.875 C 35.160156 -27.695312 37.15625 -28.109375 39.34375 -28.109375 Z M 39.34375 -28.109375 "/></g></g></g><g fill="#3c3744" fill-opacity="1"><g transform="translate(186.317555, 205.293267)"><g><path d="M 20.03125 -28.109375 C 23.539062 -28.109375 26.351562 -27.082031 28.46875 -25.03125 C 30.582031 -22.988281 31.640625 -19.953125 31.640625 -15.921875 L 31.640625 0 L 25.140625 0 L 25.140625 -15.09375 C 25.140625 -17.519531 24.566406 -19.347656 23.421875 -20.578125 C 22.273438 -21.816406 20.644531 -22.4375 18.53125 -22.4375 C 16.132812 -22.4375 14.242188 -21.710938 12.859375 -20.265625 C 11.472656 -18.828125 10.78125 -16.753906 10.78125 -14.046875 L 10.78125 0 L 4.265625 0 L 4.265625 -27.796875 L 10.46875 -27.796875 L 10.46875 -24.203125 C 11.539062 -25.484375 12.890625 -26.453125 14.515625 -27.109375 C 16.148438 -27.773438 17.988281 -28.109375 20.03125 -28.109375 Z M 20.03125 -28.109375 "/></g></g></g><g fill="#3c3744" fill-opacity="1"><g transform="translate(221.186132, 205.293267)"><g><path d="M 4.265625 -27.796875 L 10.78125 -27.796875 L 10.78125 0 L 4.265625 0 Z M 7.546875 -32.375 C 6.359375 -32.375 5.363281 -32.742188 4.5625 -33.484375 C 3.769531 -34.234375 3.375 -35.164062 3.375 -36.28125 C 3.375 -37.382812 3.769531 -38.3125 4.5625 -39.0625 C 5.363281 -39.8125 6.359375 -40.1875 7.546875 -40.1875 C 8.722656 -40.1875 9.707031 -39.828125 10.5 -39.109375 C 11.300781 -38.398438 11.703125 -37.507812 11.703125 -36.4375 C 11.703125 -35.289062 11.3125 -34.328125 10.53125 -33.546875 C 9.75 -32.765625 8.753906 -32.375 7.546875 -32.375 Z M 7.546875 -32.375 "/></g></g></g><g fill="#3c3744" fill-opacity="1"><g transform="translate(235.445722, 205.293267)"><g><path d="M 19.875 -36.4375 C 23.039062 -36.4375 25.789062 -35.914062 28.125 -34.875 C 30.46875 -33.832031 32.265625 -32.335938 33.515625 -30.390625 C 34.765625 -28.453125 35.390625 -26.144531 35.390625 -23.46875 C 35.390625 -20.832031 34.765625 -18.535156 33.515625 -16.578125 C 32.265625 -14.617188 30.46875 -13.117188 28.125 -12.078125 C 25.789062 -11.035156 23.039062 -10.515625 19.875 -10.515625 L 11.65625 -10.515625 L 11.65625 0 L 4.890625 0 L 4.890625 -36.4375 Z M 19.5625 -16.234375 C 22.519531 -16.234375 24.757812 -16.859375 26.28125 -18.109375 C 27.8125 -19.359375 28.578125 -21.144531 28.578125 -23.46875 C 28.578125 -25.789062 27.8125 -27.578125 26.28125 -28.828125 C 24.757812 -30.078125 22.519531 -30.703125 19.5625 -30.703125 L 11.65625 -30.703125 L 11.65625 -16.234375 Z M 19.5625 -16.234375 "/></g></g></g><g fill="#3c3744" fill-opacity="1"><g transform="translate(272.448061, 205.293267)"><g><path d="M 10.46875 -23.734375 C 12.332031 -26.648438 15.625 -28.109375 20.34375 -28.109375 L 20.34375 -21.90625 C 19.789062 -22.007812 19.289062 -22.0625 18.84375 -22.0625 C 16.3125 -22.0625 14.332031 -21.320312 12.90625 -19.84375 C 11.488281 -18.375 10.78125 -16.253906 10.78125 -13.484375 L 10.78125 0 L 4.265625 0 L 4.265625 -27.796875 L 10.46875 -27.796875 Z M 10.46875 -23.734375 "/></g></g></g><g fill="#3c3744" fill-opacity="1"><g transform="translate(293.525284, 205.293267)"><g><path d="M 4.265625 -27.796875 L 10.78125 -27.796875 L 10.78125 0 L 4.265625 0 Z M 7.546875 -32.375 C 6.359375 -32.375 5.363281 -32.742188 4.5625 -33.484375 C 3.769531 -34.234375 3.375 -35.164062 3.375 -36.28125 C 3.375 -37.382812 3.769531 -38.3125 4.5625 -39.0625 C 5.363281 -39.8125 6.359375 -40.1875 7.546875 -40.1875 C 8.722656 -40.1875 9.707031 -39.828125 10.5 -39.109375 C 11.300781 -38.398438 11.703125 -37.507812 11.703125 -36.4375 C 11.703125 -35.289062 11.3125 -34.328125 10.53125 -33.546875 C 9.75 -32.765625 8.753906 -32.375 7.546875 -32.375 Z M 7.546875 -32.375 "/></g></g></g><g fill="#3c3744" fill-opacity="1"><g transform="translate(307.78485, 205.293267)"><g><path d="M 30.296875 -27.796875 L 18.375 0 L 11.65625 0 L -0.265625 -27.796875 L 6.5 -27.796875 L 15.140625 -7.1875 L 24.046875 -27.796875 Z M 30.296875 -27.796875 "/></g></g></g><g clip-path="url(#dfbbf70cbc)"><g clip-path="url(#e012cebbf7)"><g transform="matrix(1, 0, 0, 1, 37, 165)"><g clip-path="url(#1c33230bf8)"><g clip-path="url(#f1a49b2e1f)"><g clip-path="url(#bd6365ded2)"><path fill="#d4d6d8" d="M 0.5 0.203125 L 11.59375 0.203125 L 11.59375 11.296875 L 0.5 11.296875 Z M 0.5 0.203125 " fill-opacity="1" fill-rule="nonzero"/></g></g></g></g></g></g><path stroke-linecap="butt" transform="matrix(0.532222, 0.528431, -0.528431, 0.532222, 47.77564, 173.860388)" fill="none" stroke-linejoin="miter" d="M 0.00265512 1.50006 L 49.552007 1.500407 " stroke="#d4d6d8" stroke-width="3" stroke-opacity="1" stroke-miterlimit="4"/><path stroke-linecap="butt" transform="matrix(-0.532274, 0.528379, -0.528379, -0.532274, 73.873404, 175.458197)" fill="none" stroke-linejoin="miter" d="M -0.000784321 1.498527 L 49.040369 1.502579 " stroke="#d4d6d8" stroke-width="3" stroke-opacity="1" stroke-miterlimit="4"/><g clip-path="url(#2c7810b90f)"><g clip-path="url(#a1301d2095)"><g transform="matrix(1, 0, 0, 1, 52, 180)"><g clip-path="url(#fd3c971676)"><g clip-path="url(#20d14dcda4)"><g clip-path="url(#101cf8c82f)"><path fill="#4caed7" d="M 0.390625 0.476562 L 15.957031 0.476562 L 15.957031 16.039062 L 0.390625 16.039062 Z M 0.390625 0.476562 " fill-opacity="1" fill-rule="nonzero"/></g></g></g></g></g></g><g clip-path="url(#a3e1fb3da7)"><g clip-path="url(#7818481a4e)"><g transform="matrix(1, 0, 0, 1, 296, 164)"><g clip-path="url(#816e3cd69c)"><g clip-path="url(#d326b08b59)"><g clip-path="url(#c46a6451ee)"><path fill="#4caed7" d="M 0.128906 0.65625 L 10.128906 0.65625 L 10.128906 10.65625 L 0.128906 10.65625 Z M 0.128906 0.65625 " fill-opacity="1" fill-rule="nonzero"/></g></g></g></g></g></g><g clip-path="url(#0557859550)"><g clip-path="url(#3186ee33cd)"><g transform="matrix(1, 0, 0, 1, 71, 165)"><g clip-path="url(#247d90638c)"><g clip-path="url(#26ac9c2d0f)"><g clip-path="url(#8bb580eec1)"><path fill="#d4d6d8" d="M 0.476562 0.203125 L 11.570312 0.203125 L 11.570312 11.296875 L 0.476562 11.296875 Z M 0.476562 0.203125 " fill-opacity="1" fill-rule="nonzero"/></g></g></g></g></g></g><g clip-path="url(#1aef327221)"><g clip-path="url(#632f7d8468)"><g transform="matrix(1, 0, 0, 1, 71, 198)"><g clip-path="url(#36410ba72c)"><g clip-path="url(#869cfc5797)"><g clip-path="url(#57dc22828f)"><path fill="#d4d6d8" d="M 0.476562 0.929688 L 11.570312 0.929688 L 11.570312 12.023438 L 0.476562 12.023438 Z M 0.476562 0.929688 " fill-opacity="1" fill-rule="nonzero"/></g></g></g></g></g></g><g clip-path="url(#fdbae9053b)"><g clip-path="url(#735636f0f6)"><g transform="matrix(1, 0, 0, 1, 37, 198)"><g clip-path="url(#ba843688e2)"><g clip-path="url(#9e5409ff6e)"><g clip-path="url(#9788180360)"><path fill="#d4d6d8" d="M 0.5 0.929688 L 11.59375 0.929688 L 11.59375 12.023438 L 0.5 12.023438 Z M 0.5 0.929688 " fill-opacity="1" fill-rule="nonzero"/></g></g></g></g></g></g></svg>
